<svg width="18" height="18" viewBox="0 0 18 18" fill="none" xmlns="http://www.w3.org/2000/svg">
<path d="M8.53834 0.609964C8.70914 0.199318 9.29086 0.199318 9.46166 0.609964L11.5278 5.57744C11.5998 5.75056 11.7626 5.86885 11.9495 5.88383L17.3123 6.31376C17.7556 6.3493 17.9354 6.90256 17.5976 7.19189L13.5117 10.6919C13.3693 10.8139 13.3071 11.0053 13.3506 11.1876L14.5989 16.4208C14.7021 16.8534 14.2315 17.1954 13.8519 16.9635L9.26063 14.1592C9.10062 14.0615 8.89938 14.0615 8.73937 14.1592L4.14806 16.9635C3.76851 17.1954 3.29788 16.8534 3.40108 16.4208L4.64939 11.1876C4.69289 11.0053 4.6307 10.8139 4.48831 10.6919L0.402413 7.19189C0.0646446 6.90256 0.244408 6.3493 0.687735 6.31376L6.05054 5.88383C6.23744 5.86885 6.40024 5.75056 6.47225 5.57744L8.53834 0.609964Z" fill="#FFBF1A"/>
</svg>
